{
  "accessors": [
    {
      "name": "Apple_1_0_positions",
      "componentType": 5126,
      "count": 514,
      "min": [
        -9.378600120544434,
        24.09819984436035,
        25.63719940185547
      ],
      "max": [
        9.378600120544434,
        42.855499267578125,
        42.07429885864258
      ],
      "type": "VEC3",
      "bufferView": 0,
      "byteOffset": 0
    },
    {
      "name": "Apple_1_0_normals",
      "componentType": 5126,
      "count": 514,
      "min": [
        -0.9995438456535339,
        -0.9995438456535339,
        -1
      ],
      "max": [
        0.9995438456535339,
        0.9995438456535339,
        1
      ],
      "type": "VEC3",
      "bufferView": 1,
      "byteOffset": 0
    },
    {
      "name": "Apple_1_0_texcoords",
      "componentType": 5126,
      "count": 514,
      "min": [
        0.6183000206947327,
        0.4634000062942505
      ],
      "max": [
        0.9462000131607056,
        0.9789999723434448
      ],
      "type": "VEC2",
      "bufferView": 2,
      "byteOffset": 0
    },
    {
      "name": "Apple_1_0_indices",
      "componentType": 5123,
      "count": 3072,
      "min": [
        0
      ],
      "max": [
        513
      ],
      "type": "SCALAR",
      "bufferView": 3,
      "byteOffset": 0
    },
    {
      "name": "Stem_1_0_positions",
      "componentType": 5126,
      "count": 566,
      "min": [
        -8.81470012664795,
        31.571500778198242,
        11.111800193786621
      ],
      "max": [
        8.418000221252441,
        35.70479965209961,
        28.171600341796875
      ],
      "type": "VEC3",
      "bufferView": 0,
      "byteOffset": 6168
    },
    {
      "name": "Stem_1_0_normals",
      "componentType": 5126,
      "count": 566,
      "min": [
        -0.9846484065055847,
        -0.990431547164917,
        -0.9049891233444214
      ],
      "max": [
        0.9848748445510864,
        0.9970908164978027,
        0.9981446862220764
      ],
      "type": "VEC3",
      "bufferView": 1,
      "byteOffset": 6168
    },
    {
      "name": "Stem_1_0_texcoords",
      "componentType": 5126,
      "count": 566,
      "min": [
        0.6280999779701233,
        0.019999999552965164
      ],
      "max": [
        0.9970999956130981,
        0.4959999918937683
      ],
      "type": "VEC2",
      "bufferView": 2,
      "byteOffset": 4112
    },
    {
      "name": "Stem_1_0_indices",
      "componentType": 5123,
      "count": 3006,
      "min": [
        0
      ],
      "max": [
        565
      ],
      "type": "SCALAR",
      "bufferView": 3,
      "byteOffset": 6144
    },
    {
      "name": "BowlerHat_1_0_positions",
      "componentType": 5126,
      "count": 600,
      "min": [
        -24.687599182128906,
        -33.03889846801758,
        -8.166099548339844
      ],
      "max": [
        24.687599182128906,
        30.62540054321289,
        18.54990005493164
      ],
      "type": "VEC3",
      "bufferView": 0,
      "byteOffset": 12960
    },
    {
      "name": "BowlerHat_1_0_normals",
      "componentType": 5126,
      "count": 600,
      "min": [
        -0.9999733567237854,
        -0.9999595284461975,
        -0.9997467994689941
      ],
      "max": [
        0.9999733567237854,
        0.9999576807022095,
        0.9973244667053223
      ],
      "type": "VEC3",
      "bufferView": 1,
      "byteOffset": 12960
    },
    {
      "name": "BowlerHat_1_0_texcoords",
      "componentType": 5126,
      "count": 600,
      "min": [
        0.01360000018030405,
        0.03759999945759773
      ],
      "max": [
        0.5551999807357788,
        0.9395999908447266
      ],
      "type": "VEC2",
      "bufferView": 2,
      "byteOffset": 8640
    },
    {
      "name": "BowlerHat_1_0_indices",
      "componentType": 5123,
      "count": 3348,
      "min": [
        0
      ],
      "max": [
        599
      ],
      "type": "SCALAR",
      "bufferView": 3,
      "byteOffset": 12156
    }
  ],
  "asset": {
    "generator": "obj2gltf",
    "version": "2.0"
  },
  "buffers": [
    {
      "name": "AppleBowler_Hat",
      "byteLength": 72612,
      "uri": "data:application/octet-stream;base64,"
    }
  ],
  "bufferViews": [
    {
      "name": "bufferView_0",
      "buffer": 0,
      "byteLength": 20160,
      "byteOffset": 0,
      "byteStride": 12,
      "target": 34962
    },
    {
      "name": "bufferView_1",
      "buffer": 0,
      "byteLength": 20160,
      "byteOffset": 20160,
      "byteStride": 12,
      "target": 34962
    },
    {
      "name": "bufferView_2",
      "buffer": 0,
      "byteLength": 13440,
      "byteOffset": 40320,
      "byteStride": 8,
      "target": 34962
    },
    {
      "name": "bufferView_3",
      "buffer": 0,
      "byteLength": 18852,
      "byteOffset": 53760,
      "target": 34963
    }
  ],
  "materials": [
    {
      "name": "01___Default",
      "pbrMetallicRoughness": {
        "baseColorFactor": [
          0.5882,
          0.5882,
          0.5882,
          1
        ],
        "metallicFactor": 0,
        "roughnessFactor": 0.99
      },
      "emissiveFactor": [
        0,
        0,
        0
      ],
      "alphaMode": "OPAQUE",
      "doubleSided": false
    }
  ],
  "meshes": [
    {
      "name": "Apple_1",
      "primitives": [
        {
          "attributes": {
            "POSITION": 0,
            "NORMAL": 1,
            "TEXCOORD_0": 2
          },
          "indices": 3,
          "material": 0,
          "mode": 4
        }
      ]
    },
    {
      "name": "Stem_1",
      "primitives": [
        {
          "attributes": {
            "POSITION": 4,
            "NORMAL": 5,
            "TEXCOORD_0": 6
          },
          "indices": 7,
          "material": 0,
          "mode": 4
        }
      ]
    },
    {
      "name": "BowlerHat_1",
      "primitives": [
        {
          "attributes": {
            "POSITION": 8,
            "NORMAL": 9,
            "TEXCOORD_0": 10
          },
          "indices": 11,
          "material": 0,
          "mode": 4
        }
      ]
    }
  ],
  "nodes": [
    {
      "name": "Apple",
      "mesh": 0
    },
    {
      "name": "Stem",
      "mesh": 1
    },
    {
      "name": "BowlerHat",
      "mesh": 2
    }
  ],
  "scene": 0,
  "scenes": [
    {
      "nodes": [
        0,
        1,
        2
      ]
    }
  ]
}
