{"accessors":[{"name":"BowlerHat_1_positions","componentType":5126,"count":560,"min":[-24.687599182128906,18.065099716186523,-31.832199096679688],"max":[24.687599182128906,44.78120040893555,31.832199096679688],"type":"VEC3","bufferView":0,"byteOffset":0},{"name":"BowlerHat_1_0_indices","componentType":5123,"count":3348,"min":[0],"max":[559],"type":"SCALAR","bufferView":1,"byteOffset":0},{"name":"Apple_1_positions","componentType":5126,"count":514,"min":[-9.378600120544434,-5.4593000411987305,25.30500030517578],"max":[9.378600120544434,10.977800369262695,44.062198638916016],"type":"VEC3","bufferView":0,"byteOffset":6720},{"name":"Apple_1_0_indices","componentType":5123,"count":3072,"min":[0],"max":[513],"type":"SCALAR","bufferView":1,"byteOffset":6696},{"name":"Stem_1_positions","componentType":5126,"count":561,"min":[-8.81470012664795,8.443400382995605,32.7781982421875],"max":[8.418000221252441,25.503299713134766,36.9114990234375],"type":"VEC3","bufferView":0,"byteOffset":12888},{"name":"Stem_1_0_indices","componentType":5123,"count":3006,"min":[0],"max":[560],"type":"SCALAR","bufferView":1,"byteOffset":12840}],"asset":{"generator":"obj2gltf","version":"2.0"},"buffers":[{"name":"input","byteLength":38472,"uri":"data:application/octet-stream;base64,"}],"bufferViews":[{"name":"bufferView_0","buffer":0,"byteLength":19620,"byteOffset":0,"byteStride":12,"target":34962},{"name":"bufferView_1","buffer":0,"byteLength":18852,"byteOffset":19620,"target":34963}],"materials":[{"name":"01___Default","pbrMetallicRoughness":{"baseColorFactor":[0.5,0.5,0.5,1],"metallicFactor":0,"roughnessFactor":1},"emissiveFactor":[0,0,0],"alphaMode":"OPAQUE","doubleSided":false}],"meshes":[{"name":"BowlerHat_1","primitives":[{"attributes":{"POSITION":0},"indices":1,"material":0,"mode":4}]},{"name":"Apple_1","primitives":[{"attributes":{"POSITION":2},"indices":3,"material":0,"mode":4}]},{"name":"Stem_1","primitives":[{"attributes":{"POSITION":4},"indices":5,"material":0,"mode":4}]}],"nodes":[{"name":"BowlerHat","mesh":0},{"name":"Apple","mesh":1},{"name":"Stem","mesh":2}],"scene":0,"scenes":[{"nodes":[0,1,2]}]}
