{
  "asset": {
    "version": "2.0",
    "generator": "THREE.GLTFExporter"
  },
  "scenes": [
    {
      "nodes": [
        4
      ],
      "name": "AuxScene"
    }
  ],
  "scene": 0,
  "nodes": [
    {
      "matrix": [
        1.2418749332427979,
        0,
        0,
        0,
        0,
        1.2418749332427979,
        0,
        0,
        0,
        0,
        1.2418749332427979,
        0,
        5.278167236610898e-7,
        -28.568561553955078,
        -15.851926803588867,
        1
      ],
      "name": "Apple",
      "mesh": 0
    },
    {
      "matrix": [
        1.0135234594345093,
        0,
        0,
        0,
        0,
        1,
        0,
        0,
        0,
        0,
        1,
        0,
        0,
        6.115015029907227,
        -0.6937026977539062,
        1
      ],
      "name": "BowlerHat",
      "mesh": 1
    },
    {
      "matrix": [
        1.5302382707595825,
        0,
        0,
        0,
        0,
        1.5302382707595825,
        0,
        0,
        0,
        0,
        1.5302382707595825,
        0,
        -0.1983475238084793,
        -28.729854583740234,
        -2.6875991821289062,
        1
      ],
      "name": "Stem",
      "mesh": 2
    },
    {
      "matrix": [
        1,
        0,
        0,
        0,
        0,
        -0.9999999999999991,
        4.3711387953671015e-8,
        0,
        0,
        -4.3711387953671015e-8,
        -0.9999999999999991,
        0,
        0,
        4.908300399780273,
        16.954103469848633,
        1
      ],
      "name": "hat",
      "children": [
        0,
        1,
        2
      ]
    },
    {
      "children": [
        3
      ]
    }
  ],
  "bufferViews": [
    {
      "buffer": 0,
      "byteOffset": 0,
      "byteLength": 36864,
      "target": 34962,
      "byteStride": 12
    },
    {
      "buffer": 0,
      "byteOffset": 36864,
      "byteLength": 36864,
      "target": 34962,
      "byteStride": 12
    },
    {
      "buffer": 0,
      "byteOffset": 73728,
      "byteLength": 24576,
      "target": 34962,
      "byteStride": 8
    },
    {
      "buffer": 0,
      "byteOffset": 98304,
      "byteLength": 6144,
      "target": 34963
    },
    {
      "buffer": 0,
      "byteOffset": 104448,
      "byteLength": 40176,
      "target": 34962,
      "byteStride": 12
    },
    {
      "buffer": 0,
      "byteOffset": 144624,
      "byteLength": 40176,
      "target": 34962,
      "byteStride": 12
    },
    {
      "buffer": 0,
      "byteOffset": 184800,
      "byteLength": 26784,
      "target": 34962,
      "byteStride": 8
    },
    {
      "buffer": 0,
      "byteOffset": 211584,
      "byteLength": 6696,
      "target": 34963
    },
    {
      "buffer": 0,
      "byteOffset": 218280,
      "byteLength": 36072,
      "target": 34962,
      "byteStride": 12
    },
    {
      "buffer": 0,
      "byteOffset": 254352,
      "byteLength": 36072,
      "target": 34962,
      "byteStride": 12
    },
    {
      "buffer": 0,
      "byteOffset": 290424,
      "byteLength": 24048,
      "target": 34962,
      "byteStride": 8
    },
    {
      "buffer": 0,
      "byteOffset": 314472,
      "byteLength": 6012,
      "target": 34963
    }
  ],
  "buffers": [
    {
      "byteLength": 320484,
      "uri": "data:application/octet-stream;base64,"
    }
  ],
  "accessors": [
    {
      "bufferView": 0,
      "componentType": 5126,
      "count": 3072,
      "max": [
        7.5519795417785645,
        7.5519795417785645,
        5.772620677947998
      ],
      "min": [
        -7.5519795417785645,
        -7.5519795417785645,
        -7.463164806365967
      ],
      "type": "VEC3"
    },
    {
      "bufferView": 1,
      "componentType": 5126,
      "count": 3072,
      "max": [
        0.9995443224906921,
        0.9995442628860474,
        0.9999999403953552
      ],
      "min": [
        -0.9995443224906921,
        -0.9995443224906921,
        -1
      ],
      "type": "VEC3"
    },
    {
      "bufferView": 2,
      "componentType": 5126,
      "count": 3072,
      "max": [
        0.946239173412323,
        0.5366365909576416
      ],
      "min": [
        0.6182878017425537,
        0.021037321537733078
      ],
      "type": "VEC2"
    },
    {
      "bufferView": 3,
      "componentType": 5123,
      "count": 3072,
      "max": [
        3071
      ],
      "min": [
        0
      ],
      "type": "SCALAR"
    },
    {
      "bufferView": 4,
      "componentType": 5126,
      "count": 3348,
      "max": [
        24.358226776123047,
        31.832157135009766,
        25.813949584960938
      ],
      "min": [
        -24.358226776123047,
        -31.832155227661133,
        -0.9021180868148804
      ],
      "type": "VEC3"
    },
    {
      "bufferView": 5,
      "componentType": 5126,
      "count": 3348,
      "max": [
        0.9999731779098511,
        0.9999589920043945,
        0.9997463822364807
      ],
      "min": [
        -0.9999731779098511,
        -0.9999579191207886,
        -0.9996368885040283
      ],
      "type": "VEC3"
    },
    {
      "bufferView": 6,
      "componentType": 5126,
      "count": 3348,
      "max": [
        0.5552020072937012,
        0.962400496006012
      ],
      "min": [
        0.01360444724559784,
        0.06036160886287689
      ],
      "type": "VEC2"
    },
    {
      "bufferView": 7,
      "componentType": 5123,
      "count": 3348,
      "max": [
        3347
      ],
      "min": [
        0
      ],
      "type": "SCALAR"
    },
    {
      "bufferView": 8,
      "componentType": 5126,
      "count": 3006,
      "max": [
        5.630717754364014,
        1.3505363464355469,
        5.574260711669922
      ],
      "min": [
        -5.630717754364014,
        -1.3505345582962036,
        -5.5742597579956055
      ],
      "type": "VEC3"
    },
    {
      "bufferView": 9,
      "componentType": 5126,
      "count": 3006,
      "max": [
        0.9848653674125671,
        0.9903502464294434,
        0.9894971251487732
      ],
      "min": [
        -0.9846529364585876,
        -0.9975019693374634,
        -0.8987934589385986
      ],
      "type": "VEC3"
    },
    {
      "bufferView": 10,
      "componentType": 5126,
      "count": 3006,
      "max": [
        0.9970922470092773,
        0.9799996614456177
      ],
      "min": [
        0.6281474828720093,
        0.5040225386619568
      ],
      "type": "VEC2"
    },
    {
      "bufferView": 11,
      "componentType": 5123,
      "count": 3006,
      "max": [
        3005
      ],
      "min": [
        0
      ],
      "type": "SCALAR"
    }
  ],
  "materials": [
    {
      "pbrMetallicRoughness": {
        "baseColorFactor": [
          0.5882353186607361,
          0.5882353186607361,
          0.5882353186607361,
          1
        ],
        "metallicFactor": 0.5,
        "roughnessFactor": 0.5,
        "baseColorTexture": {
          "index": 0
        }
      },
      "name": "01 - Default"
    }
  ],
  "textures": [
    {
      "sampler": 0,
      "source": 0
    }
  ],
  "samplers": [
    {
      "magFilter": 9729,
      "minFilter": 9987
    }
  ],
  "images": [
    {
      "mimeType": "image/png",
      "uri": "data:image/png;base64,"
    }
  ],
  "meshes": [
    {
      "primitives": [
        {
          "mode": 4,
          "attributes": {
            "POSITION": 0,
            "NORMAL": 1,
            "TEXCOORD_0": 2
          },
          "indices": 3,
          "material": 0
        }
      ]
    },
    {
      "primitives": [
        {
          "mode": 4,
          "attributes": {
            "POSITION": 4,
            "NORMAL": 5,
            "TEXCOORD_0": 6
          },
          "indices": 7,
          "material": 0
        }
      ]
    },
    {
      "primitives": [
        {
          "mode": 4,
          "attributes": {
            "POSITION": 8,
            "NORMAL": 9,
            "TEXCOORD_0": 10
          },
          "indices": 11,
          "material": 0
        }
      ]
    }
  ]
}